<mxfile host="app.diagrams.net" agent="Mozilla/5.0 (Windows NT 10.0; Win64; x64) AppleWebKit/537.36 (KHTML, like Gecko) Chrome/140.0.0.0 Safari/537.36" version="28.0.6">
  <diagram name="第 1 页" id="Gwt-J-u2KMgd3SKaAL-G">
    <mxGraphModel dx="1803" dy="1189" grid="1" gridSize="10" guides="1" tooltips="1" connect="1" arrows="1" fold="1" page="0" pageScale="1" pageWidth="827" pageHeight="1169" math="0" shadow="0">
      <root>
        <mxCell id="0" />
        <mxCell id="1" parent="0" />
        <mxCell id="SNM0LRdLKRQg5RCh3Zvp-1" value="" style="rounded=0;whiteSpace=wrap;html=1;" vertex="1" parent="1">
          <mxGeometry x="-174" y="-254" width="564" height="264" as="geometry" />
        </mxCell>
        <mxCell id="SNM0LRdLKRQg5RCh3Zvp-2" value="" style="rounded=0;whiteSpace=wrap;html=1;" vertex="1" parent="1">
          <mxGeometry x="-50" y="140" width="110" height="210" as="geometry" />
        </mxCell>
        <mxCell id="SNM0LRdLKRQg5RCh3Zvp-3" value="" style="triangle;whiteSpace=wrap;html=1;" vertex="1" parent="1">
          <mxGeometry x="-50" y="310" width="40" height="40" as="geometry" />
        </mxCell>
        <mxCell id="SNM0LRdLKRQg5RCh3Zvp-4" value="&lt;font style=&quot;font-size: 24px;&quot;&gt;D&lt;/font&gt;" style="text;html=1;align=center;verticalAlign=middle;resizable=0;points=[];autosize=1;strokeColor=none;fillColor=none;fontSize=16;" vertex="1" parent="1">
          <mxGeometry x="-50" y="160" width="40" height="40" as="geometry" />
        </mxCell>
        <mxCell id="SNM0LRdLKRQg5RCh3Zvp-5" value="&lt;font style=&quot;font-size: 24px;&quot;&gt;D&lt;/font&gt;" style="text;html=1;align=center;verticalAlign=middle;resizable=0;points=[];autosize=1;strokeColor=none;fillColor=none;fontSize=16;" vertex="1" parent="1">
          <mxGeometry x="20" y="160" width="40" height="40" as="geometry" />
        </mxCell>
        <mxCell id="SNM0LRdLKRQg5RCh3Zvp-6" value="&lt;font style=&quot;font-size: 24px;&quot;&gt;$$\bar{Q}$$&lt;/font&gt;" style="text;html=1;align=center;verticalAlign=middle;resizable=0;points=[];autosize=1;strokeColor=none;fillColor=none;fontSize=16;" vertex="1" parent="1">
          <mxGeometry x="320" y="160" width="150" height="40" as="geometry" />
        </mxCell>
      </root>
    </mxGraphModel>
  </diagram>
</mxfile>
